<svg style="width: 26px;filter: contrast(2);margin-right: 6px;" xmlns="http://www.w3.org/2000/svg" viewBox="0 0 532.57 557.85"><defs><style>.cls-1{fill:#cf7233;}</style></defs><path id="Fill-24" class="cls-1" d="M327.19,516.67c-106.37,20.78-174.46-34.94-174.46-34.94s50.4-48.46,56.6-57.79c43.89,26,102.59,15.39,102.59,15.39,63.6-15.17,89.44-54.07,89.44-54.07l73.85,31.63c-26,37.22-68.84,84.32-148,99.78ZM185.74,233.54c-6.8-3.83-21.44-11.95-39-21.66a153.75,153.75,0,0,1,135.09-80.42v45.19s55.68-3,91,49.06c6.54-4.34,20.56-13.77,37.28-25a156.52,156.52,0,0,1,14.1,145.8L382.9,329.26S368.46,370,323.61,388.83c0,0-64,29.58-119.06-23.93l-31.69,32a154.64,154.64,0,0,1-28-38.54l39.64-20.77s-28.32-48.44,1.22-104Zm-55.87,81.24-71.5,37.33C36.93,281,60,216,60,216s54.66,34.59,70.54,39.55c-6.57,33.88-.65,59.23-.65,59.23ZM327.25,57.11c72.45,13.61,119.07,64.22,119.07,64.22S390.67,154.27,379,166.17c-26.77-21.49-51.85-27.89-51.85-27.89ZM496.59,376.59a236,236,0,0,0-21.37-219.75L512.05,132S440.62,9.87,281.88,8V52.58a232,232,0,0,0-45.41,4.51c-70,14-126.32,58.42-158.27,116.86C55.83,161.58,39,152.31,39,152.31s-74.54,120.18-3,263l39.4-20.63a233.08,233.08,0,0,0,42.11,58L86.28,484.21s76.06,83.78,195.6,81.6c116.62-2.14,210.74-65.93,255.69-172.15Z" transform="translate(-5 -8)"/></svg>
